<svg viewBox="0 0 19.9932 14" fill="none" xmlns="http://www.w3.org/2000/svg" xmlns:xlink="http://www.w3.org/1999/xlink" x="0" y="0"><path id="icon" d="M9.9971,-0.0002c4.55,0 8.43,2.904 10,7c-1.57,4.097 -5.45,7 -10,7c-4.55,0 -8.44,-2.903 -10,-7c1.56,-4.097 5.45,-7 10,-7zM9.9971,1.9998c-3.4,0 -6.38,2.016 -7.82,5c1.44,2.984 4.42,5 7.82,5c3.4,0 6.38,-2.016 7.82,-5c-1.44,-2.984 -4.42,-5 -7.82,-5zM9.9971,3.9998c1.66,0 3,1.343 3,3c0,1.657 -1.34,3 -3,3c-1.66,0 -3,-1.343 -3,-3c0,-1.657 1.34,-3 3,-3z" fill="currentColor"/></svg>