<svg viewBox="0 0 36 36" fill="none" xmlns="http://www.w3.org/2000/svg" xmlns:xlink="http://www.w3.org/1999/xlink" x="0" y="0"><defs><clipPath id="clip1_77_1399">
<rect width="36" height="36" fill="white" transform="translate(0, 0)"/>
</clipPath></defs><g id="clarity:user-line" clip-path="url(#clip1_77_1399)">
<path id="Vector" d="M18,17c1.38,0 2.74,-0.4105 3.89,-1.1797c1.15,-0.7692 2.05,-1.8624 2.58,-3.1415c0.53,-1.2791 0.67,-2.6866 0.4,-4.0444c-0.27,-1.3579 -0.94,-2.6052 -1.92,-3.5841c-0.98,-0.979 -2.23,-1.6457 -3.58,-1.9158c-1.36,-0.2701 -2.77,-0.1315 -4.05,0.3983c-1.28,0.5299 -2.37,1.4271 -3.14,2.5782c-0.77,1.1512 -1.18,2.5045 -1.18,3.889c0,1.8565 0.74,3.637 2.05,4.9497c1.31,1.3128 3.09,2.0503 4.95,2.0503zM18,5c0.99,0 1.96,0.2932 2.78,0.8427c0.82,0.5494 1.46,1.3303 1.84,2.2439c0.38,0.9136 0.48,1.9189 0.28,2.8889c-0.19,0.9699 -0.67,1.8608 -1.36,2.56c-0.7,0.6993 -1.59,1.1755 -2.56,1.3684c-0.97,0.193 -1.98,0.0939 -2.89,-0.2845c-0.92,-0.3784 -1.7,-1.0193 -2.25,-1.8415c-0.55,-0.8223 -0.84,-1.789 -0.84,-2.7779c0,-1.3261 0.53,-2.5978 1.46,-3.5355c0.94,-0.9377 2.21,-1.4645 3.54,-1.4645z" fill="black"/>
<path id="Vector_2" d="M30.47,24.3703c-1.6,-1.695 -3.54,-3.0451 -5.68,-3.9678c-2.14,-0.9227 -4.45,-1.3986 -6.78,-1.3986c-2.34,0 -4.65,0.4759 -6.79,1.3986c-2.14,0.9227 -4.08,2.2728 -5.68,3.9678c-0.35,0.3714 -0.54,0.8613 -0.54,1.37v5.26c0,0.5304 0.21,1.0391 0.59,1.4142c0.37,0.3751 0.88,0.5858 1.41,0.5858h22c0.53,0 1.04,-0.2107 1.41,-0.5858c0.38,-0.3751 0.59,-0.8838 0.59,-1.4142v-5.26c0,-0.5074 -0.19,-0.9971 -0.53,-1.37zM29,31.0003h-22v-5.27c1.42,-1.4923 3.12,-2.6807 5.01,-3.4927c1.9,-0.8121 3.93,-1.2308 5.99,-1.2308c2.06,0 4.09,0.4187 5.99,1.2308c1.89,0.812 3.59,2.0004 5.01,3.4927z" fill="black"/>
</g></svg>